<svg width="200" height="200" viewBox="0 0 200 200" xmlns="http://www.w3.org/2000/svg">
  <!-- Space Background -->
  <defs>
    <radialGradient id="spaceGradient" cx="50%" cy="50%" r="50%">
      <stop offset="0%" stop-color="#0A0F2E" />
      <stop offset="100%" stop-color="#000000" />
    </radialGradient>
    <radialGradient id="earthGradient" cx="50%" cy="50%" r="50%">
      <stop offset="0%" stop-color="#00BFFF" />
      <stop offset="100%" stop-color="#0E6EB8" />
    </radialGradient>
  </defs>

  <!-- Outer Frame (Window) -->
  <circle cx="100" cy="100" r="95" stroke="#C0C0C0" stroke-width="10" fill="url(#spaceGradient)" />

  <!-- Earth -->
  <circle cx="100" cy="100" r="70" fill="url(#earthGradient)" />

  <!-- Landmasses (Abstract Shapes) -->
  <path d="M75,100 C65,90 45,120 55,135 C70,150 90,135 75,100" fill="#66BB66" opacity="0.8"/>
  <path d="M125,85 C140,70 160,100 150,120 C135,140 115,120 125,85" fill="#66BB66" opacity="0.8"/>
  <path d="M90,130 C100,140 120,145 130,135 C125,125 105,125 90,130" fill="#66BB66" opacity="0.8"/>

  <!-- Swirling Clouds -->
  <path d="M50,75 C70,55 130,55 150,75" stroke="#FFFFFF" stroke-width="2" fill="none" opacity="0.5"/>
  <path d="M60,125 C85,115 115,130 140,125" stroke="#E0F8FF" stroke-width="2" fill="none" opacity="0.4"/>
  <path d="M75,95 C95,85 105,105 125,95" stroke="#E0F8FF" stroke-width="1.5" fill="none" opacity="0.3"/>

  <!-- Stars -->
  <circle cx="25" cy="30" r="2" fill="#FFFFFF" />
  <circle cx="175" cy="45" r="1.5" fill="#FFFFFF" />
  <circle cx="160" cy="155" r="1" fill="#FFFFFF" />
  <circle cx="35" cy="170" r="1.5" fill="#FFFFFF" />

  <!-- Optional Glow -->
  <circle cx="170" cy="50" r="8" fill="#FFFFFF" opacity="0.2" />
</svg>
