<svg width="200" height="200" viewBox="0 0 200 200" xmlns="http://www.w3.org/2000/svg">
  <!-- Space Background -->
  <defs>
    <radialGradient id="spaceGradient" cx="50%" cy="50%" r="50%">
      <stop offset="0%" stop-color="#0A0F2E" />
      <stop offset="100%" stop-color="#000000" />
    </radialGradient>
    <radialGradient id="earthGradient" cx="50%" cy="50%" r="50%">
      <stop offset="0%" stop-color="#00BFFF" />
      <stop offset="100%" stop-color="#0E6EB8" />
    </radialGradient>
  </defs>

  <!-- Outer Frame (Window) -->
  <circle cx="100" cy="100" r="95" stroke="#C0C0C0" stroke-width="10" fill="url(#spaceGradient)" />

  <!-- Earth -->
  <circle cx="100" cy="100" r="40" fill="url(#earthGradient)" />

  <!-- Landmasses (Abstract Shapes) -->
  <path d="M90,100 C85,95 75,110 80,115 C85,120 95,115 90,100" fill="#66BB66" opacity="0.8"/>
  <path d="M110,95 C115,90 125,100 120,105 C115,110 105,105 110,95" fill="#66BB66" opacity="0.8"/>

  <!-- Swirling Clouds -->
  <path d="M75,90 C85,80 115,80 125,90" stroke="#FFFFFF" stroke-width="2" fill="none" opacity="0.5"/>
  <path d="M80,110 C95,105 105,115 120,110" stroke="#E0F8FF" stroke-width="2" fill="none" opacity="0.4"/>

  <!-- Stars -->
  <circle cx="30" cy="40" r="2" fill="#FFFFFF" />
  <circle cx="170" cy="60" r="1.5" fill="#FFFFFF" />
  <circle cx="150" cy="140" r="1" fill="#FFFFFF" />

  <!-- Optional Glow -->
  <circle cx="140" cy="60" r="10" fill="#FFFFFF" opacity="0.2" />
</svg>
